<?xml version="1.0" encoding="UTF-8" standalone="no"?>
<!-- Created with Inkscape (http://www.inkscape.org/) -->

<svg
   width="210mm"
   height="297mm"
   viewBox="0 0 210 297"
   version="1.1"
   id="svg917"
   inkscape:version="1.1.2 (1:1.1+202202050950+0a00cf5339)"
   sodipodi:docname="hycrypto.svg"
   xmlns:inkscape="http://www.inkscape.org/namespaces/inkscape"
   xmlns:sodipodi="http://sodipodi.sourceforge.net/DTD/sodipodi-0.dtd"
   xmlns:xlink="http://www.w3.org/1999/xlink"
   xmlns="http://www.w3.org/2000/svg"
   xmlns:svg="http://www.w3.org/2000/svg">
  <sodipodi:namedview
     id="namedview919"
     pagecolor="#ffffff"
     bordercolor="#666666"
     borderopacity="1.0"
     inkscape:pageshadow="2"
     inkscape:pageopacity="0.0"
     inkscape:pagecheckerboard="0"
     inkscape:document-units="mm"
     showgrid="false"
     showguides="false"
     inkscape:guide-bbox="true"
     inkscape:snap-global="false"
     inkscape:zoom="0.5"
     inkscape:cx="349"
     inkscape:cy="650"
     inkscape:window-width="1366"
     inkscape:window-height="721"
     inkscape:window-x="0"
     inkscape:window-y="22"
     inkscape:window-maximized="1"
     inkscape:current-layer="layer1"
     inkscape:snap-midpoints="true"
     inkscape:snap-smooth-nodes="true"
     inkscape:snap-intersection-paths="true"
     inkscape:lockguides="false">
    <sodipodi:guide
       position="107.56708,274.7533"
       orientation="1,0"
       id="guide1013"
       inkscape:locked="false" />
  </sodipodi:namedview>
  <defs
     id="defs914">
    <linearGradient
       inkscape:collect="always"
       id="linearGradient66310">
      <stop
         style="stop-color:#f6ed40;stop-opacity:1;"
         offset="0"
         id="stop66306" />
      <stop
         style="stop-color:#fe8e1a;stop-opacity:1"
         offset="1"
         id="stop66308" />
    </linearGradient>
    <linearGradient
       inkscape:collect="always"
       id="linearGradient64352">
      <stop
         style="stop-color:#f7c109;stop-opacity:1;"
         offset="0"
         id="stop64348" />
      <stop
         style="stop-color:#fe8e1a;stop-opacity:1"
         offset="1"
         id="stop64350" />
    </linearGradient>
    <linearGradient
       inkscape:collect="always"
       id="linearGradient62176">
      <stop
         style="stop-color:#f57f0b;stop-opacity:1;"
         offset="0"
         id="stop62172" />
      <stop
         style="stop-color:#fe8e1a;stop-opacity:1"
         offset="1"
         id="stop62174" />
    </linearGradient>
    <linearGradient
       inkscape:collect="always"
       id="linearGradient39743">
      <stop
         style="stop-color:#538d6f;stop-opacity:1"
         offset="0"
         id="stop39737" />
      <stop
         style="stop-color:#66ad83;stop-opacity:0.99215174"
         offset="1"
         id="stop39741" />
    </linearGradient>
    <linearGradient
       inkscape:collect="always"
       id="linearGradient18036">
      <stop
         style="stop-color:#45805c;stop-opacity:0.99607843"
         offset="0"
         id="stop18032" />
      <stop
         style="stop-color:#86dfa9;stop-opacity:0.99607843"
         offset="0.38486558"
         id="stop31015" />
      <stop
         style="stop-color:#6bae86;stop-opacity:0.9921568"
         offset="1"
         id="stop18034" />
    </linearGradient>
    <linearGradient
       inkscape:collect="always"
       id="linearGradient10427">
      <stop
         style="stop-color:#538c6f;stop-opacity:1"
         offset="0"
         id="stop10423" />
      <stop
         style="stop-color:#4c8a65;stop-opacity:0.99607843;"
         offset="0.28862402"
         id="stop15773" />
      <stop
         style="stop-color:#5dc787;stop-opacity:0.99607843"
         offset="0.43291005"
         id="stop15839" />
      <stop
         style="stop-color:#50906a;stop-opacity:0.99607843;"
         offset="0.58310115"
         id="stop15905" />
      <stop
         style="stop-color:#5ca479;stop-opacity:0.99607843"
         offset="1"
         id="stop10425" />
    </linearGradient>
    <linearGradient
       inkscape:collect="always"
       id="linearGradient185886">
      <stop
         style="stop-color:#2c523f;stop-opacity:1;"
         offset="0"
         id="stop185882" />
      <stop
         style="stop-color:#2c523f;stop-opacity:1;"
         offset="0.18643922"
         id="stop186120" />
      <stop
         style="stop-color:#3c795b;stop-opacity:1"
         offset="0.2824558"
         id="stop186054" />
      <stop
         style="stop-color:#2c523f;stop-opacity:1;"
         offset="0.47590864"
         id="stop185988" />
      <stop
         style="stop-color:#2c523f;stop-opacity:1"
         offset="1"
         id="stop185884" />
    </linearGradient>
    <linearGradient
       inkscape:collect="always"
       id="linearGradient185250">
      <stop
         style="stop-color:#3b6d54;stop-opacity:1;"
         offset="0"
         id="stop185246" />
      <stop
         style="stop-color:#3b6d54;stop-opacity:1;"
         offset="0.20305607"
         id="stop185612" />
      <stop
         style="stop-color:#468f6b;stop-opacity:1"
         offset="0.3014746"
         id="stop185416" />
      <stop
         style="stop-color:#3b6d54;stop-opacity:1;"
         offset="0.52002418"
         id="stop185482" />
      <stop
         style="stop-color:#3b6d54;stop-opacity:1"
         offset="1"
         id="stop185248" />
    </linearGradient>
    <linearGradient
       inkscape:collect="always"
       id="linearGradient153568">
      <stop
         style="stop-color:#52996e;stop-opacity:1"
         offset="0"
         id="stop153564" />
      <stop
         style="stop-color:#66ad83;stop-opacity:0.99215174"
         offset="1"
         id="stop153566" />
    </linearGradient>
    <linearGradient
       inkscape:collect="always"
       id="linearGradient140105">
      <stop
         style="stop-color:#63aa80;stop-opacity:1"
         offset="0"
         id="stop140101" />
      <stop
         style="stop-color:#64ab81;stop-opacity:1"
         offset="0.18579692"
         id="stop151462" />
      <stop
         style="stop-color:#87d0a7;stop-opacity:1"
         offset="0.24643378"
         id="stop141758" />
      <stop
         style="stop-color:#68a981;stop-opacity:1"
         offset="0.40386429"
         id="stop146754" />
      <stop
         style="stop-color:#5da278;stop-opacity:1"
         offset="1"
         id="stop140103" />
    </linearGradient>
    <linearGradient
       inkscape:collect="always"
       id="linearGradient138123">
      <stop
         style="stop-color:#4e916a;stop-opacity:1"
         offset="0"
         id="stop138119" />
      <stop
         style="stop-color:#54976f;stop-opacity:1;"
         offset="0.16608754"
         id="stop170419" />
      <stop
         style="stop-color:#5ea279;stop-opacity:1"
         offset="0.42235357"
         id="stop161228" />
      <stop
         style="stop-color:#5da278;stop-opacity:1"
         offset="0.56493288"
         id="stop161162" />
      <stop
         style="stop-color:#589d73;stop-opacity:1;"
         offset="0.74600166"
         id="stop170485" />
      <stop
         style="stop-color:#53976c;stop-opacity:1"
         offset="1"
         id="stop138121" />
    </linearGradient>
    <linearGradient
       inkscape:collect="always"
       id="linearGradient112934">
      <stop
         style="stop-color:#365f48;stop-opacity:1;"
         offset="0"
         id="stop112930" />
      <stop
         style="stop-color:#559571;stop-opacity:1"
         offset="0.35180947"
         id="stop113091" />
      <stop
         style="stop-color:#365f48;stop-opacity:1"
         offset="1"
         id="stop112932" />
    </linearGradient>
    <linearGradient
       inkscape:collect="always"
       id="linearGradient83958">
      <stop
         style="stop-color:#478264;stop-opacity:1"
         offset="0"
         id="stop83954" />
      <stop
         style="stop-color:#83b59b;stop-opacity:1"
         offset="0.37400815"
         id="stop84060" />
      <stop
         style="stop-color:#529774;stop-opacity:1"
         offset="0.73777813"
         id="stop84254" />
      <stop
         style="stop-color:#4c8b6b;stop-opacity:1"
         offset="1"
         id="stop83956" />
    </linearGradient>
    <linearGradient
       inkscape:collect="always"
       id="linearGradient77471">
      <stop
         style="stop-color:#264433;stop-opacity:1"
         offset="0"
         id="stop77467" />
      <stop
         style="stop-color:#447b5c;stop-opacity:1"
         offset="0.49437302"
         id="stop77765" />
      <stop
         style="stop-color:#2f523d;stop-opacity:1"
         offset="1"
         id="stop77469" />
    </linearGradient>
    <linearGradient
       inkscape:collect="always"
       id="linearGradient73887">
      <stop
         style="stop-color:#b9deec;stop-opacity:1;"
         offset="0"
         id="stop73883" />
      <stop
         style="stop-color:#65b6d4;stop-opacity:1"
         offset="1"
         id="stop73885" />
    </linearGradient>
    <linearGradient
       inkscape:collect="always"
       id="linearGradient73449">
      <stop
         style="stop-color:#ffffff;stop-opacity:1"
         offset="0"
         id="stop73445" />
      <stop
         style="stop-color:#87c6de;stop-opacity:1"
         offset="1"
         id="stop73447" />
    </linearGradient>
    <filter
       inkscape:collect="always"
       style="color-interpolation-filters:sRGB"
       id="filter83479"
       x="-0.32370533"
       y="-0.05517162"
       width="1.6474107"
       height="1.1103432">
      <feGaussianBlur
         inkscape:collect="always"
         stdDeviation="2.7318524"
         id="feGaussianBlur83481" />
    </filter>
    <filter
       inkscape:collect="always"
       style="color-interpolation-filters:sRGB"
       id="filter86354"
       x="-0.053769992"
       y="-0.061170852"
       width="1.10754"
       height="1.1223417">
      <feGaussianBlur
         inkscape:collect="always"
         stdDeviation="0.35135714"
         id="feGaussianBlur86356" />
    </filter>
    <filter
       inkscape:collect="always"
       style="color-interpolation-filters:sRGB"
       id="filter110964"
       x="-0.34717288"
       y="-0.038120341"
       width="1.6943458"
       height="1.0762407">
      <feGaussianBlur
         inkscape:collect="always"
         stdDeviation="1.549279"
         id="feGaussianBlur110966" />
    </filter>
    <clipPath
       clipPathUnits="userSpaceOnUse"
       id="clipPath112269">
      <path
         id="path112271"
         style="fill:#666666;fill-opacity:1;stroke:none;stroke-width:0.264583px;stroke-linecap:butt;stroke-linejoin:miter;stroke-opacity:1"
         d="m 28.800523,20.629183 c 0,0 -20.5632945,16.152197 -25.8061747,49.483286 -5.2428695,33.331081 8.8335697,73.170211 8.8335697,73.170211 h 33.944697 c 0,0 14.076955,-39.83913 8.834086,-73.170211 C 49.36382,36.78138 28.800523,20.629183 28.800523,20.629183 Z"
         sodipodi:nodetypes="csccsc" />
    </clipPath>
    <clipPath
       clipPathUnits="userSpaceOnUse"
       id="clipPath159552">
      <path
         style="fill:url(#linearGradient159556);fill-opacity:1;stroke:none;stroke-width:0.999999px;stroke-linecap:butt;stroke-linejoin:miter;stroke-opacity:1"
         d="m 198.51514,438.48942 c 0,0 24.72665,17.00039 34.97598,50.35616 10.24932,33.3558 18.74657,87.59716 12.31408,96.01519 -6.43253,8.41803 -29.98708,-39.20239 -41.86353,-51.18663 -11.87644,-11.98424 -23.83373,-19.24377 -23.83373,-19.24377 0,0 18.12113,-67.71439 18.4072,-75.94095 z"
         id="path159554" />
    </clipPath>
    <linearGradient
       inkscape:collect="always"
       xlink:href="#linearGradient153568"
       id="linearGradient159556"
       gradientUnits="userSpaceOnUse"
       x1="53.851063"
       y1="126.83849"
       x2="64.317398"
       y2="151.37344"
       gradientTransform="scale(3.7795276)" />
    <filter
       inkscape:collect="always"
       style="color-interpolation-filters:sRGB"
       id="filter172292"
       x="-0.075581271"
       y="-0.01436409"
       width="1.1511625"
       height="1.0287282">
      <feGaussianBlur
         inkscape:collect="always"
         stdDeviation="0.93455422"
         id="feGaussianBlur172294" />
    </filter>
    <clipPath
       clipPathUnits="userSpaceOnUse"
       id="clipPath175364">
      <path
         id="path175366"
         style="fill:url(#linearGradient175368);fill-opacity:1;stroke:none;stroke-width:0.999999px;stroke-linecap:butt;stroke-linejoin:miter;stroke-opacity:1"
         d="m 108.85239,430.59146 c 0,0 -9.465411,4.8263 -13.019527,20.98635 -6.431244,29.24198 5.710257,134.95918 13.019527,135.16211 7.30927,-0.20297 19.45274,-105.92013 13.02149,-135.16211 -3.55411,-16.16005 -13.02149,-20.98635 -13.02149,-20.98635 z" />
    </clipPath>
    <linearGradient
       inkscape:collect="always"
       xlink:href="#linearGradient138123"
       id="linearGradient175368"
       gradientUnits="userSpaceOnUse"
       x1="32.614346"
       y1="130.67776"
       x2="24.888462"
       y2="130.67776"
       gradientTransform="scale(3.7795276)" />
    <filter
       inkscape:collect="always"
       style="color-interpolation-filters:sRGB"
       id="filter190259"
       x="-0.20472959"
       y="-0.092009123"
       width="1.4094592"
       height="1.1840182">
      <feGaussianBlur
         inkscape:collect="always"
         stdDeviation="0.74911444"
         id="feGaussianBlur190261" />
    </filter>
    <linearGradient
       inkscape:collect="always"
       xlink:href="#linearGradient39743"
       id="linearGradient10082"
       gradientUnits="userSpaceOnUse"
       gradientTransform="matrix(-0.15043536,-0.15043536,-0.15043536,0.15043536,85.855814,150.54096)"
       x1="49.766495"
       y1="126.25275"
       x2="67.566635"
       y2="149.23874" />
    <linearGradient
       inkscape:collect="always"
       xlink:href="#linearGradient185886"
       id="linearGradient10084"
       gradientUnits="userSpaceOnUse"
       x1="11.746751"
       y1="154.50256"
       x2="47.313702"
       y2="157.32506"
       gradientTransform="matrix(0.15043536,0.15043536,-0.15043536,0.15043536,77.194015,141.87916)" />
    <linearGradient
       inkscape:collect="always"
       xlink:href="#linearGradient185250"
       id="linearGradient10086"
       gradientUnits="userSpaceOnUse"
       x1="9.3139181"
       y1="147.00845"
       x2="47.052746"
       y2="150.52512"
       gradientTransform="matrix(0.15043536,0.15043536,-0.15043536,0.15043536,77.194015,141.87916)" />
    <linearGradient
       inkscape:collect="always"
       xlink:href="#linearGradient83958"
       id="linearGradient10090"
       gradientUnits="userSpaceOnUse"
       x1="2.583662"
       y1="87.998131"
       x2="47.223942"
       y2="89.675865"
       gradientTransform="matrix(0.15043536,0.15043536,-0.15043536,0.15043536,77.194015,141.87916)" />
    <linearGradient
       inkscape:collect="always"
       xlink:href="#linearGradient138123"
       id="linearGradient10092"
       gradientUnits="userSpaceOnUse"
       x1="32.614346"
       y1="130.67776"
       x2="24.888462"
       y2="130.67776"
       gradientTransform="matrix(0.15043536,0.15043536,-0.15043536,0.15043536,77.194015,141.87916)" />
    <linearGradient
       inkscape:collect="always"
       xlink:href="#linearGradient140105"
       id="linearGradient10094"
       gradientUnits="userSpaceOnUse"
       x1="29.74991"
       y1="114.29305"
       x2="28.927237"
       y2="152.92516"
       gradientTransform="matrix(0.15043536,0.15043536,-0.15043536,0.15043536,77.194015,141.87916)" />
    <linearGradient
       inkscape:collect="always"
       xlink:href="#linearGradient62176"
       id="linearGradient10096"
       gradientUnits="userSpaceOnUse"
       x1="161.03558"
       y1="632.93658"
       x2="161.03558"
       y2="716.49127"
       gradientTransform="matrix(0.03980269,0.03980269,-0.03980269,0.03980269,77.194015,141.87916)" />
    <linearGradient
       inkscape:collect="always"
       xlink:href="#linearGradient112934"
       id="linearGradient10098"
       gradientUnits="userSpaceOnUse"
       x1="15.19238"
       y1="69.382401"
       x2="42.643986"
       y2="69.335144"
       gradientTransform="matrix(0.15043536,0.15043536,-0.15043536,0.15043536,77.194015,141.87916)" />
    <linearGradient
       inkscape:collect="always"
       xlink:href="#linearGradient77471"
       id="linearGradient10100"
       gradientUnits="userSpaceOnUse"
       x1="15.916558"
       y1="70.056709"
       x2="40.268066"
       y2="74.693176"
       gradientTransform="matrix(0.15043536,0.15043536,-0.15043536,0.15043536,77.194015,141.87916)" />
    <linearGradient
       inkscape:collect="always"
       xlink:href="#linearGradient73887"
       id="linearGradient10102"
       gradientUnits="userSpaceOnUse"
       x1="23.265852"
       y1="60.675953"
       x2="34.52684"
       y2="77.136612"
       gradientTransform="matrix(0.15043536,0.15043536,-0.15043536,0.15043536,77.194015,141.87916)" />
    <linearGradient
       inkscape:collect="always"
       xlink:href="#linearGradient73449"
       id="linearGradient10104"
       gradientUnits="userSpaceOnUse"
       x1="23.227436"
       y1="61.574905"
       x2="29.54245"
       y2="70.403831" />
    <linearGradient
       inkscape:collect="always"
       xlink:href="#linearGradient64352"
       id="linearGradient10106"
       gradientUnits="userSpaceOnUse"
       x1="38.404007"
       y1="158.19539"
       x2="38.404007"
       y2="187.94077"
       gradientTransform="matrix(0.15043536,0.15043536,-0.15043536,0.15043536,77.194015,141.87916)" />
    <linearGradient
       inkscape:collect="always"
       xlink:href="#linearGradient66310"
       id="linearGradient10108"
       gradientUnits="userSpaceOnUse"
       x1="29.795795"
       y1="158.10689"
       x2="29.937897"
       y2="189.44728"
       gradientTransform="matrix(0.15043536,0.15043536,-0.15043536,0.15043536,77.194015,141.87916)" />
    <linearGradient
       inkscape:collect="always"
       xlink:href="#linearGradient10427"
       id="linearGradient10429"
       x1="-164.22443"
       y1="609.91455"
       x2="-175.46996"
       y2="629.73126"
       gradientUnits="userSpaceOnUse"
       gradientTransform="matrix(0.18708867,0.18708867,-0.18708867,0.18708867,205.25882,76.795918)" />
    <linearGradient
       inkscape:collect="always"
       xlink:href="#linearGradient18036"
       id="linearGradient18038"
       x1="-164.57297"
       y1="610.84235"
       x2="-174.01788"
       y2="628.14099"
       gradientUnits="userSpaceOnUse"
       gradientTransform="matrix(0.18708867,0.18708867,-0.18708867,0.18708867,205.25882,76.795918)" />
    <linearGradient
       inkscape:collect="always"
       xlink:href="#linearGradient18036"
       id="linearGradient61798"
       gradientUnits="userSpaceOnUse"
       x1="-164.57297"
       y1="610.84235"
       x2="-174.01788"
       y2="628.14099"
       gradientTransform="matrix(-0.18708867,-0.18708867,-0.18708867,0.18708867,150.93924,22.475989)" />
    <linearGradient
       inkscape:collect="always"
       xlink:href="#linearGradient10427"
       id="linearGradient61800"
       gradientUnits="userSpaceOnUse"
       x1="-164.22443"
       y1="609.91455"
       x2="-175.46996"
       y2="629.73126"
       gradientTransform="matrix(-0.18708867,-0.18708867,-0.18708867,0.18708867,150.93924,22.475989)" />
    <linearGradient
       inkscape:collect="always"
       xlink:href="#linearGradient39743"
       id="linearGradient61802"
       gradientUnits="userSpaceOnUse"
       gradientTransform="matrix(0.15043536,0.15043536,-0.15043536,0.15043536,77.194203,141.87899)"
       x1="49.766495"
       y1="126.25275"
       x2="67.566635"
       y2="149.23874" />
  </defs>
  <g
     inkscape:label="Layer 1"
     inkscape:groupmode="layer"
     id="layer1">
    <path
       id="rect78244"
       style="fill:#172036;fill-opacity:1;stroke-width:1.05833;stroke-linecap:round;stroke-linejoin:round"
       d="M 1.5316575,54.907487 H 212.22108 c 0.30744,0 0.55494,0.247507 0.55494,0.554948 V 266.15185 c 0,0.30744 -0.2475,0.55495 -0.55494,0.55495 H 1.5316575 c -0.307441,0 -0.55494804,-0.24751 -0.55494804,-0.55495 V 55.462435 c 0,-0.307441 0.24750704,-0.554948 0.55494804,-0.554948 z" />
    <g
       id="g66927"
       style="display:inline;fill:#66ad83;fill-opacity:1"
       transform="matrix(0.21274772,0,0,0.21274772,-5.4338959,162.87655)">
      <path
         id="rect12663"
         style="fill:#66ad83;fill-opacity:1;stroke-width:3.36461;stroke-linecap:round;stroke-linejoin:round"
         d="m 467.15177,-27.4404 a 7.1960952,5.5203787 0 0 0 -7.19745,5.520074 7.1960952,5.5203787 0 0 0 7.19745,5.520075 7.1960952,5.5203787 0 0 0 7.19582,-5.520075 7.1960952,5.5203787 0 0 0 -7.19582,-5.520074 z m -3.92648,14.588768 c -0.9774,0 -1.76445,0.787051 -1.76445,1.764455 V 21.69483 c 0,0.977405 0.78705,1.764456 1.76445,1.764456 h 8.75326 c 0.97741,0 1.76446,-0.787051 1.76446,-1.764456 v -32.782007 c 0,-0.977404 -0.78705,-1.764455 -1.76446,-1.764455 z" />
      <path
         id="path12768"
         style="fill:#66ad83;fill-opacity:1;stroke-width:3.36461;stroke-linecap:round;stroke-linejoin:round"
         d="m 503.80441,-15.06952 c -2.88213,0 -7.94432,3.863547 -10.01006,5.5430795 v -1.5607365 c 0,-0.977404 -0.78705,-1.764455 -1.76446,-1.764455 h -8.75326 c -0.9774,0 -1.76445,0.787051 -1.76445,1.764455 V 21.69483 c 0,0.977405 0.78705,1.764456 1.76445,1.764456 h 8.75326 c 0.97741,0 1.76446,-0.787051 1.76446,-1.764456 V -0.23267948 c 0.6161,-0.64251561 2.44368,-2.49599042 4.50312,-4.07105162 2.5292,-1.9343013 9.20735,-1.2830881 11.12887,-1.2830881 1.92165,0 1.76938,-2.4084599 1.76938,-2.4084599 v -4.7972119 c 0,-2.245663 -1.87452,-2.277029 -1.87452,-2.277029 z" />
      <path
         id="rect12872"
         style="fill:#66ad83;fill-opacity:1;stroke-width:3.36461;stroke-linecap:round;stroke-linejoin:round"
         d="m 404.19007,-25.577378 c -0.9774,0 -1.76445,0.787051 -1.76445,1.764455 v 45.294184 c 0,0.977405 0.78705,1.764447 1.76445,1.764447 h 10.29263 c 0.97741,0 1.76446,-0.787042 1.76446,-1.764447 V 3.1976566 h 22.85409 V 21.481261 c 0,0.977405 0.78541,1.764447 1.76282,1.764447 h 10.29428 c 0.9774,0 1.76444,-0.787042 1.76444,-1.764447 v -45.294184 c 0,-0.977404 -0.78704,-1.764455 -1.76444,-1.764455 h -10.29428 c -0.97741,0 -1.76282,0.787051 -1.76282,1.764455 V -7.5204897 H 416.24716 V -23.812923 c 0,-0.977404 -0.78705,-1.764455 -1.76446,-1.764455 z" />
      <path
         id="path13599"
         style="fill:#66ad83;fill-opacity:1;stroke:none;stroke-width:0.841153px;stroke-linecap:butt;stroke-linejoin:miter;stroke-opacity:1"
         d="m 533.52245,-15.403021 c -18.31383,0 -20.29942,13.232499 -20.29942,20.7084922 0,7.4760098 5.08197,19.1181808 21.065,19.1181808 15.983,0 18.27375,-7.575502 18.27375,-9.310197 0,-1.734695 -0.25629,-2.623678 -0.25629,-2.623678 h -9.38906 c 0,0 -3.45494,3.803271 -8.40003,3.803271 -4.9451,0 -8.41688,-3.725699 -8.57091,-8.115826 h 27.35395 V 2.1642819 c 0,-3.6604843 -1.46312,-17.5673029 -19.77699,-17.5673029 z m 0.0559,8.5347539 c 7.01992,0 7.81518,7.54082092 7.81518,7.54082092 h -15.69115 c 0,-3.05066432 1.32257,-7.54082092 7.87597,-7.54082092 z" />
    </g>
    <g
       id="g66935"
       style="fill:#4c8564;fill-opacity:1"
       transform="matrix(0.21274772,0,0,0.21274772,-5.4338959,162.87655)">
      <path
         style="fill:#4c8564;fill-opacity:1;stroke:none;stroke-width:0.841153px;stroke-linecap:butt;stroke-linejoin:miter;stroke-opacity:1"
         d="m 590.54766,-15.691979 c 4.13517,0 6.04972,2.874697 6.94304,4.923955 0.89331,2.049258 2.22656,4.0024101 7.2966,4.0024101 5.07003,0 6.08699,-1.7253331 6.08699,-5.6825361 0,-3.957234 -4.86031,-13.843167 -15.46827,-13.843167 -10.60795,0 -4.89725,0 -16.06432,0 -11.1671,0 -22.17344,7.820302 -22.17344,25.84318162 0,18.02290138 13.89133,24.72014438 19.83036,24.72014438 5.93904,0 8.24139,0 15.75169,0 7.51033,0 18.75103,-4.815085 18.75103,-14.5283219 0,0 0.75382,-5.417034 -3.32175,-5.417034 -4.07553,0 -6.74415,-0.7538659 -8.04399,2.3670381 -1.29983,3.120904 -4.5958,7.3630548 -9.54862,7.3630548 -4.95282,0 -8.42619,0 -11.32412,0 -2.89791,0 -8.15644,-3.76629 -8.15644,-9.6593596 0,-5.8930568 0,-5.33040809 0,-9.1275397 0,-3.7971315 1.88909,-11.1838587 9.08418,-11.1838587 7.19506,0 10.35706,0.221906 10.35706,0.221906 z"
         id="path17938" />
      <path
         id="path20702"
         style="fill:#4c8564;fill-opacity:1;stroke-width:3.36461;stroke-linecap:round;stroke-linejoin:round"
         d="m 638.92355,-15.06953 c -2.8821,0 -7.94432,3.863544 -10.01004,5.5430971 v -1.5607481 c 0,-0.977402 -0.78707,-1.764436 -1.76447,-1.764436 h -8.75326 c -0.97741,0 -1.76444,0.787034 -1.76444,1.764436 v 32.782012 c 0,0.977403 0.78703,1.764456 1.76444,1.764456 h 8.75326 c 0.9774,0 1.76447,-0.787053 1.76447,-1.764456 V -0.23268334 c 0.61609,-0.64250933 2.44366,-2.49599456 4.50312,-4.07104846 2.52919,-1.9342996 9.20734,-1.2830794 11.12886,-1.2830794 1.92165,0 1.7694,-2.4084721 1.7694,-2.4084721 v -4.7972017 c 0,-2.245667 -1.87453,-2.277045 -1.87453,-2.277045 z" />
      <path
         style="fill:#4c8564;fill-opacity:1;stroke:none;stroke-width:0.841153px;stroke-linecap:butt;stroke-linejoin:miter;stroke-opacity:1"
         d="m 657.02547,-14.020279 c 1.59956,0 2.75239,0.818477 3.88347,5.3905615 1.13112,4.5720849 5.05872,20.1114225 10.48158,20.8940915 0,0 5.94212,-19.9871392 6.88172,-23.37206 0.9396,-3.384889 2.48067,-3.505698 3.85442,-3.505698 1.37378,0 4.44966,0 5.91023,0 1.4606,0 3.32452,0.980137 1.86836,5.4216218 -1.45615,4.4414848 -9.10808,31.1003092 -10.44327,35.2953612 -1.33515,4.195049 -6.04391,9.94984 -10.77076,9.94984 -4.72681,0 -6.52279,0 -9.15755,0 -2.63473,0 -5.19644,-0.692431 -5.19644,-3.662309 0,-2.969875 0,-2.158622 0,-3.260533 0,-1.101911 0.76287,-2.25605 2.23225,-2.25605 1.46938,0 3.17052,0 5.72046,0 2.54995,0 5.51188,-0.677484 6.92041,-5.660482 0,0 -7.51774,0.368205 -11.20233,-5.8532 -3.68462,-6.2214069 -9.35829,-24.0867841 -10.15324,-27.009836 -0.79498,-2.923084 1.38233,-2.529344 2.53567,-2.529344 1.15334,0 6.63502,0.158005 6.63502,0.158005 z"
         id="path20865" />
      <path
         id="path23194"
         style="fill:#4c8564;fill-opacity:1;stroke:none;stroke-width:0.841153px;stroke-linecap:butt;stroke-linejoin:miter;stroke-opacity:1"
         d="m 718.41044,-15.634667 c -7.47946,0 -12.59924,4.4867 -12.59924,4.4867 -10e-6,0 0.27056,-3.055753 -1.41945,-3.055753 -10e-6,0 -5.93145,-0.03777 -7.21717,-0.03777 -1.28572,0 -2.4446,0.260547 -2.4446,3.362968 v 43.541235 c 0,1.534005 0.1568,2.873391 2.87339,2.873391 h 6.29059 c 2.76132,0 3.2069,-1.405913 3.2069,-3.717834 v -9.472843 c 0,0 4.86361,2.257313 10.521,2.257313 5.65735,0 17.97471,-4.404115 17.97471,-19.8311934 0,-15.4270956 -9.70667,-20.4061986 -17.18613,-20.4061986 z m -3.03769,9.2707643 c 4.87293,0 7.50961,4.8290997 7.50961,7.05616476 V 7.6005687 c 0,2.5375353 -1.42122,8.1158253 -7.69689,8.1158253 -6.27571,0 -7.81354,-1.659311 -7.81354,-1.659311 L 707.2635,-2.3684204 c 0,0 3.23635,-3.9954823 8.10925,-3.9954823 z" />
      <path
         style="fill:#4c8564;fill-opacity:1;stroke:none;stroke-width:0.841153px;stroke-linecap:butt;stroke-linejoin:miter;stroke-opacity:1"
         d="m 753.77561,-12.152646 h 10.02384 c 1.90588,0 1.7413,2.4005877 1.7413,4.4272103 0,2.0266225 -0.0404,3.9877543 -1.94282,3.9877543 H 753.7951 V 10.476644 c 0,3.51795 2.71357,5.20333 5.09143,5.20333 h 6.33649 c 2.40596,0 2.45231,1.104242 2.45231,3.56496 0,2.460732 0.64728,4.750023 -3.53084,4.750023 h -8.91235 c -4.55469,0 -13.38193,-0.635079 -13.38193,-11.456955 v -34.318083 c 0,-3.978916 0.98045,-4.448956 2.6106,-4.448956 h 6.41549 c 1.21899,0 3.04507,0.164045 3.04507,3.045068 -0.0191,3.677309 -0.0811,7.354841 -0.1456,11.031323 z"
         id="path26434"
         sodipodi:nodetypes="cssscsssssssssscc" />
      <path
         id="path66219"
         style="fill:#4c8564;fill-opacity:1;stroke-width:6.0324;stroke-linecap:round;stroke-linejoin:round"
         d="m 791.42162,-15.273239 c -11.41909,0 -20.67566,4.254271 -20.67566,19.6784144 0,15.4241266 9.25657,19.6800296 20.67566,19.6800466 11.41909,-1.7e-5 20.67565,-4.119796 20.67565,-19.6800466 0,-15.5602414 -9.25656,-19.6784144 -20.67565,-19.6784144 z m -9e-5,8.7659111 c 4.72334,0 8.55126,2.3685219 8.55126,11.3183939 0,8.949864 -3.82792,11.319824 -8.55126,11.319832 -4.72333,-8e-6 -8.55268,-2.448255 -8.55268,-11.319832 0,-8.8715773 3.82935,-11.3183939 8.55268,-11.3183939 z"
         sodipodi:nodetypes="ssssssssss" />
    </g>
    <g
       id="g1103">
      <path
         style="fill:url(#linearGradient61802);fill-opacity:1;stroke:none;stroke-width:0.0562894px;stroke-linecap:butt;stroke-linejoin:miter;stroke-opacity:1"
         d="m 67.642582,167.23348 c 0,0 0.307529,1.66085 -0.61217,3.39645 -0.919706,1.73561 -2.740445,4.23277 -3.331531,4.3118 -0.591095,0.079 0.366792,-2.75393 0.371085,-3.70365 0.0043,-0.94972 -0.182695,-1.7146 -0.182695,-1.7146 0,0 3.416485,-1.97394 3.755311,-2.29 z"
         id="path61792" />
      <path
         id="path61794"
         style="fill:url(#linearGradient61800);fill-opacity:1;stroke:none;stroke-width:0.0562893px;stroke-linecap:butt;stroke-linejoin:miter;stroke-opacity:1"
         d="m 67.642395,167.23365 c 0,0 0.307642,1.66086 -0.612055,3.39646 -0.919708,1.73561 -2.740334,4.23242 -3.33142,4.31145 -0.02322,0.003 -0.04393,0.002 -0.06246,-0.004 0.703939,-0.38513 2.330207,-2.64823 3.1827,-4.25699 0.790696,-1.49216 0.674881,-2.92626 0.626671,-3.29999 0.09299,-0.0637 0.161715,-0.11437 0.19659,-0.1469 z" />
      <path
         id="path61796"
         style="fill:url(#linearGradient61798);fill-opacity:1;stroke:none;stroke-width:0.0562893px;stroke-linecap:butt;stroke-linejoin:miter;stroke-opacity:1"
         d="m 67.430826,167.28517 c 0,0 0.307639,1.66087 -0.612062,3.39647 -0.852603,1.60897 -2.479457,3.87213 -3.18323,4.25676 -0.02993,-0.008 -0.04011,-0.019 -0.04861,-0.0306 0.697235,-0.36565 2.337209,-2.64544 3.194573,-4.2634 0.827262,-1.56115 0.663589,-3.05026 0.621928,-3.33617 0.0099,-0.008 0.02029,-0.0163 0.02744,-0.0231 z"
         sodipodi:nodetypes="csccscsc" />
      <path
         style="fill:url(#linearGradient10082);fill-opacity:1;stroke:none;stroke-width:0.0562894px;stroke-linecap:butt;stroke-linejoin:miter;stroke-opacity:1"
         d="m 60.50132,160.09258 c 0,0 -1.660846,-0.30753 -3.396447,0.61217 -1.735607,0.9197 -4.232773,2.74044 -4.311798,3.33153 -0.07903,0.59109 2.753925,-0.3668 3.703647,-0.37109 0.949721,-0.004 1.714599,0.1827 1.714599,0.1827 0,0 1.973945,-3.41649 2.289999,-3.75531 z"
         id="path10038" />
      <path
         id="path10153"
         style="fill:url(#linearGradient10429);fill-opacity:1;stroke:none;stroke-width:0.0562893px;stroke-linecap:butt;stroke-linejoin:miter;stroke-opacity:1"
         d="m 60.501154,160.09276 c 0,0 -1.660863,-0.30764 -3.396464,0.61206 -1.735606,0.91971 -4.232419,2.74033 -4.311443,3.33142 -0.0031,0.0232 -0.0016,0.0439 0.004,0.0625 0.385133,-0.70394 2.648238,-2.33021 4.256996,-3.1827 1.492156,-0.7907 2.92626,-0.67489 3.299996,-0.62668 0.06369,-0.093 0.114365,-0.16172 0.146894,-0.19659 z" />
      <path
         id="path16339"
         style="fill:url(#linearGradient18038);fill-opacity:1;stroke:none;stroke-width:0.0562893px;stroke-linecap:butt;stroke-linejoin:miter;stroke-opacity:1"
         d="m 60.449632,160.30434 c 0,0 -1.660865,-0.30765 -3.396464,0.61205 -1.608976,0.85261 -3.872135,2.47946 -4.256769,3.18324 0.0077,0.0299 0.01904,0.0401 0.03065,0.0486 0.365648,-0.69724 2.645438,-2.33722 4.263401,-3.19458 1.561143,-0.82726 3.050262,-0.66359 3.336171,-0.62193 0.008,-0.01 0.01635,-0.0202 0.02302,-0.0274 z"
         sodipodi:nodetypes="csccscsc" />
      <path
         id="path10040"
         style="fill:url(#linearGradient10084);fill-opacity:1;stroke:none;stroke-width:0.0562894px;stroke-linecap:butt;stroke-linejoin:miter;stroke-opacity:1"
         d="m 56.988408,166.18326 c -0.606937,0.19712 -1.362349,0.45017 -1.765251,0.89996 l 5.432024,5.43203 c 0.449798,-0.4029 0.702849,-1.15831 0.899964,-1.76525 z"
         sodipodi:nodetypes="ccccc" />
      <path
         id="path10042"
         style="fill:url(#linearGradient10086);fill-opacity:1;stroke:none;stroke-width:0.0562894px;stroke-linecap:butt;stroke-linejoin:miter;stroke-opacity:1"
         d="m 57.842409,165.32926 c -0.606937,0.19712 -1.362349,0.45017 -1.76525,0.89996 l 5.432024,5.43203 c 0.449797,-0.4029 0.702847,-1.15832 0.899962,-1.76525 z"
         sodipodi:nodetypes="ccccc" />
      <path
         id="path10046"
         style="fill:url(#linearGradient10090);fill-opacity:1;stroke:none;stroke-width:0.0562894px;stroke-linecap:butt;stroke-linejoin:miter;stroke-opacity:1"
         d="m 78.423275,149.31513 c 0,0 -5.523306,-0.66359 -11.326199,3.56188 -5.802886,4.22546 -9.678502,12.33626 -9.678502,12.33626 l 5.106483,5.10648 c 0,0 8.110882,-3.87553 12.336342,-9.67842 4.225464,-5.80289 3.561876,-11.3262 3.561876,-11.3262 z"
         sodipodi:nodetypes="csccsc" />
      <path
         style="fill:#4c8564;fill-opacity:1;stroke:none;stroke-width:0.0562894px;stroke-linecap:butt;stroke-linejoin:miter;stroke-opacity:1"
         d="m 78.423274,149.31513 c 0.189075,2.26605 -0.25313,4.12932 -0.712702,5.66766 -2.278284,-1.10817 -3.856271,-2.82457 -4.956183,-4.95618 1.683815,-0.48924 3.318882,-0.82087 5.668885,-0.71148 z"
         id="path10048"
         sodipodi:nodetypes="cccc" />
      <path
         style="display:inline;mix-blend-mode:normal;fill:#87d0a8;fill-opacity:1;stroke:none;stroke-width:0.264583px;stroke-linecap:butt;stroke-linejoin:miter;stroke-opacity:1;filter:url(#filter83479)"
         d="m 28.399738,21.905226 c 0,0 -20.0441163,36.207838 -20.2508593,66.051268 -0.206743,29.843426 8.8029463,52.786016 8.8029463,52.786016 l 11.172073,-0.19116 c 0,0 -7.455608,-25.41028 -7.147643,-49.041977 0.307966,-23.631694 7.423483,-69.604147 7.423483,-69.604147 z"
         id="path10050"
         sodipodi:nodetypes="csccsc"
         transform="matrix(0.15043536,0.15043536,-0.15043536,0.15043536,77.194015,141.87916)" />
      <path
         id="path10052"
         style="fill:url(#linearGradient10092);fill-opacity:1;stroke:none;stroke-width:0.0562894px;stroke-linecap:butt;stroke-linejoin:miter;stroke-opacity:1"
         d="m 64.387935,163.35047 c 0,0 -0.568849,-0.18465 -1.353525,0.3171 -1.419893,0.90793 -5.144458,5.59903 -4.861605,5.89803 0.29899,0.28287 4.990177,-3.44163 5.898107,-4.86152 0.50175,-0.78468 0.317023,-1.35361 0.317023,-1.35361 z" />
      <path
         id="path10054"
         style="fill:url(#linearGradient10094);fill-opacity:1;stroke:none;stroke-width:0.0562894px;stroke-linecap:butt;stroke-linejoin:miter;stroke-opacity:1"
         d="m 64.387935,163.35047 -0.127133,-0.0245 c -0.654132,0.49486 -1.573879,1.59515 -6.100713,6.15996 l 0.01273,0.0796 0.07962,0.0127 c 4.564798,-4.52684 5.66509,-5.44658 6.159953,-6.10071 z"
         sodipodi:nodetypes="ccccccc" />
      <path
         id="path10056"
         style="fill:url(#linearGradient10096);fill-opacity:1;stroke:none;stroke-width:0.0562894px;stroke-linecap:butt;stroke-linejoin:miter;stroke-opacity:1"
         d="m 55.425907,167.28595 c 0,0 -0.844554,0.75934 -1.943977,2.7885 -1.099421,2.02916 -1.937874,6.11983 -1.937874,6.11983 0,0 4.090754,-0.83837 6.119912,-1.93779 2.029159,-1.09942 2.788505,-1.94398 2.788505,-1.94398 z"
         sodipodi:nodetypes="cscscc" />
      <path
         id="path10058"
         style="fill:#4a8263;fill-opacity:1;stroke-width:0.225157;stroke-linecap:round;stroke-linejoin:round"
         d="m 73.096684,158.70046 a 2.8699635,2.8699635 0 0 1 -4.058738,0 2.8699635,2.8699635 0 0 1 -2e-6,-4.05874 2.8699635,2.8699635 0 0 1 4.058745,0 2.8699635,2.8699635 0 0 1 -5e-6,4.05874 z" />
      <path
         id="path10060"
         style="fill:url(#linearGradient10098);fill-opacity:1;stroke-width:0.225157;stroke-linecap:round;stroke-linejoin:round"
         d="m 73.055891,158.74126 c -1.120792,1.12079 -2.892799,1.07564 -4.013589,-0.0452 -1.120791,-1.12079 -1.165944,-2.89279 -0.04515,-4.01359 1.120785,-1.12078 2.937948,-1.12078 4.058738,1e-5 1.120791,1.12079 1.120788,2.93795 2e-6,4.05874 z"
         sodipodi:nodetypes="sssss" />
      <path
         id="path10062"
         style="fill:#498061;fill-opacity:1;stroke-width:0.185273;stroke-linecap:round;stroke-linejoin:round"
         d="m 72.64094,158.3652 c -0.841591,0.84159 -2.291325,0.86807 -3.213576,-0.0542 -0.92225,-0.92225 -0.899081,-2.36867 -0.05418,-3.21357 0.922258,-0.92226 2.381524,-0.95827 3.303774,-0.036 0.922251,0.92225 0.886241,2.38152 -0.03602,3.30378 z"
         sodipodi:nodetypes="sssss" />
      <path
         id="path10064"
         style="fill:url(#linearGradient10100);fill-opacity:1;stroke-width:0.185274;stroke-linecap:round;stroke-linejoin:round"
         d="m 72.660413,158.34578 c -0.841592,0.84159 -2.291332,0.86806 -3.21359,-0.0542 -0.922257,-0.92225 -0.899095,-2.36869 -0.05419,-3.21359 0.922258,-0.92225 2.381531,-0.95826 3.303788,-0.036 0.922258,0.92226 0.886254,2.38153 -0.036,3.30379 z"
         sodipodi:nodetypes="sssss" />
      <path
         id="path10066"
         style="fill:url(#linearGradient10102);fill-opacity:1;stroke-width:0.168713;stroke-linecap:round;stroke-linejoin:round"
         d="m 72.615054,158.16463 a 2.1505047,2.1505047 0 0 1 -3.041277,0 2.1505047,2.1505047 0 0 1 4e-6,-3.04128 2.1505047,2.1505047 0 0 1 3.041269,1e-5 2.1505047,2.1505047 0 0 1 4e-6,3.04127 z" />
      <path
         id="path10068"
         style="mix-blend-mode:normal;fill:url(#linearGradient10104);fill-opacity:1;stroke-width:0.662164;stroke-linecap:round;stroke-linejoin:round;filter:url(#filter86354)"
         d="m 35.289857,68.461381 c -2.938709,3.372719 -4.893923,-3.591985 -8.311701,4.142438 -1.884093,4.263699 -6.617899,1.40446 -6.617899,-3.25697 0,-4.661431 3.778836,-8.440267 8.440267,-8.440267 4.66143,0 9.041906,4.625243 6.489333,7.554799 z"
         sodipodi:nodetypes="sssss"
         transform="matrix(0.15043536,0.15043536,-0.15043536,0.15043536,77.194015,141.87916)" />
      <path
         id="path10070"
         style="fill:#3d6d54;fill-opacity:1;stroke:none;stroke-width:0.264583px;stroke-linecap:butt;stroke-linejoin:miter;stroke-opacity:1;filter:url(#filter110964)"
         d="m 45.048413,143.28273 c 2.126334,-1.07428 1.934654,-5.28171 3.077874,-7.56429 5.447096,-19.59929 8.991076,-40.100607 7.133852,-60.483908 C 54.241559,65.048465 51.555758,55.01319 47.201245,45.742428 58.164743,84.30664 51.683041,113.83429 45.048413,143.28273 Z"
         sodipodi:nodetypes="ccccc"
         clip-path="url(#clipPath112269)"
         transform="matrix(0.15043536,0.15043536,-0.15043536,0.15043536,77.194015,141.87916)" />
      <path
         id="path10072"
         style="fill:#46805c;fill-opacity:1;stroke:none;stroke-width:0.999999px;stroke-linecap:butt;stroke-linejoin:miter;stroke-opacity:1;filter:url(#filter172292)"
         d="m 108.85156,430.5918 c 0,0 8.33875,4.82627 11.46875,20.98632 5.66381,29.24198 -5.03169,134.95915 -11.46875,135.16211 7.30927,-0.20296 19.45273,-105.92013 13.02149,-135.16211 -3.55412,-16.16005 -13.02149,-20.98632 -13.02149,-20.98632 z m 0,0 c 0,0 -9.465412,4.82627 -13.019529,20.98632 C 89.400787,480.8201 101.5423,586.53731 108.85156,586.74023 102.41451,586.53731 91.722912,480.8201 97.386719,451.57812 100.51672,435.41807 108.85156,430.5918 108.85156,430.5918 Z"
         transform="matrix(0.03980269,0.03980269,-0.03980269,0.03980269,77.194015,141.87916)"
         clip-path="url(#clipPath175364)" />
      <path
         style="mix-blend-mode:normal;fill:#5cbf8a;fill-opacity:1;stroke:none;stroke-width:0.264583px;stroke-linecap:butt;stroke-linejoin:miter;stroke-opacity:1;filter:url(#filter190259)"
         d="m 33.993344,29.826545 c 0,0 5.730214,7.221019 7.875484,15.777676 2.145271,8.556656 0.286403,0.922515 -3.523454,-7.041973 -3.039059,-6.353142 -4.35203,-8.735703 -4.35203,-8.735703 z"
         id="path10074"
         sodipodi:nodetypes="cssc"
         transform="matrix(0.15043536,0.15043536,-0.15043536,0.15043536,77.194015,141.87916)" />
      <path
         id="path10076"
         style="fill:url(#linearGradient10106);fill-opacity:1;stroke:none;stroke-width:0.0467807px;stroke-linecap:butt;stroke-linejoin:miter;stroke-opacity:1"
         d="m 56.151596,168.01164 c 0,0 -0.809064,0.74845 -1.997468,2.59814 -1.188408,1.84969 -2.425103,5.39956 -2.425103,5.39956 0,0 3.549922,-1.23664 5.399613,-2.42505 1.849691,-1.18841 2.598145,-1.99747 2.598145,-1.99747 z"
         sodipodi:nodetypes="cscscc" />
      <path
         id="path10078"
         style="fill:url(#linearGradient10108);fill-opacity:1;stroke:none;stroke-width:0.037573px;stroke-linecap:butt;stroke-linejoin:miter;stroke-opacity:1"
         d="m 56.786045,168.64608 c 0,0 -0.798302,0.75922 -2.104064,2.49155 -1.305758,1.73234 -2.952946,4.87172 -2.952946,4.87172 0,0 3.139409,-1.64715 4.87175,-2.95291 1.732341,-1.30576 2.49155,-2.10407 2.49155,-2.10407 z"
         sodipodi:nodetypes="cscscc" />
    </g>
  </g>
</svg>
